# 3ds Max Wavefront OBJ Exporter v0.97b - (c)2007 guruware
# File Created: 25.04.2019 18:51:58

mtllib ship.mtl

#
# object Box001
#

v  -0.1159 -0.1419 -0.0546
v  -0.1159 0.0532 -0.0546
v  0.1159 0.0532 -0.0546
v  0.1159 -0.1419 -0.0546
v  -0.1159 -0.1419 0.0557
v  0.1159 -0.1419 0.0557
v  0.1159 0.0532 0.0557
v  -0.1159 0.0532 0.0557
v  0.1865 -0.1419 -0.0136
v  0.1865 0.0532 -0.0136
v  0.1865 0.0532 0.0125
v  0.1865 -0.1419 0.0125
v  -0.1865 0.0532 -0.0136
v  -0.1865 -0.1419 -0.0136
v  -0.1865 -0.1419 0.0125
v  -0.1865 0.0532 0.0125
v  -0.1159 -0.1862 -0.0546
v  -0.1159 -0.1862 0.0557
v  -0.1865 -0.1862 0.0125
v  -0.1865 -0.1862 -0.0136
v  -0.1159 0.2749 0.0557
v  -0.1159 0.2749 -0.0546
v  -0.1865 0.2749 -0.0136
v  -0.1865 0.2749 0.0125
v  0.1159 -0.1862 0.0557
v  0.1159 -0.1862 -0.0546
v  0.1865 -0.1862 -0.0136
v  0.1865 -0.1862 0.0125
v  0.1159 0.2749 -0.0546
v  0.1159 0.2749 0.0557
v  0.1865 0.2749 0.0125
v  0.1865 0.2749 -0.0136
# 32 vertices

vn 0.0000 0.0000 -1.0000
vn 0.0000 0.0000 1.0000
vn 0.0000 -1.0000 0.0000
vn 1.0000 0.0000 0.0000
vn 0.0000 1.0000 0.0000
vn -1.0000 0.0000 0.0000
vn -0.5026 0.0000 -0.8645
vn -0.5222 0.0000 0.8528
vn 0.5026 0.0000 -0.8645
vn 0.5222 0.0000 0.8528
# 10 vertex normals

vt 0.1892 0.0962 0.0000
vt 0.1892 0.5192 0.0000
vt 0.8108 0.5192 0.0000
vt 0.8108 0.0962 0.0000
vt 1.0000 0.0962 0.0000
vt 1.0000 0.5192 0.0000
vt 0.0000 0.5192 0.0000
vt 0.0000 0.0962 0.0000
vt 0.1892 0.0000 0.0000
vt 0.0000 0.0000 0.0000
vt 0.1892 1.0000 0.0000
vt 0.0000 1.0000 0.0000
vt 0.8108 0.0000 0.0000
vt 1.0000 0.0000 0.0000
vt 0.8108 1.0000 0.0000
vt 1.0000 1.0000 0.0000
# 16 texture coords

g Box001
usemtl wire_154154229
f 1/1/1 2/2/1 3/3/1 
f 3/3/1 4/4/1 1/1/1 
f 5/1/2 6/4/2 7/3/2 
f 7/3/2 8/2/2 5/1/2 
f 1/1/3 4/4/3 6/4/3 
f 6/4/3 5/1/3 1/1/3 
f 9/5/4 10/6/4 11/6/4 
f 11/6/4 12/5/4 9/5/4 
f 3/3/5 2/2/5 8/2/5 
f 8/2/5 7/3/5 3/3/5 
f 13/7/6 14/8/6 15/8/6 
f 15/8/6 16/7/6 13/7/6 
f 2/2/7 1/1/7 14/8/7 
f 14/8/7 13/7/7 2/2/7 
f 5/1/8 8/2/8 16/7/8 
f 16/7/8 15/8/8 5/1/8 
f 17/9/3 18/9/3 19/10/3 
f 19/10/3 20/10/3 17/9/3 
f 21/11/5 22/11/5 23/12/5 
f 23/12/5 24/12/5 21/11/5 
f 4/4/9 3/3/9 10/6/9 
f 10/6/9 9/5/9 4/4/9 
f 7/3/10 6/4/10 12/5/10 
f 12/5/10 11/6/10 7/3/10 
f 25/13/3 26/13/3 27/14/3 
f 27/14/3 28/14/3 25/13/3 
f 29/15/5 30/15/5 31/16/5 
f 31/16/5 32/16/5 29/15/5 
f 11/6/4 10/6/4 32/16/4 
f 32/16/4 31/16/4 11/6/4 
f 8/2/4 2/2/4 22/11/4 
f 22/11/4 21/11/4 8/2/4 
f 3/3/6 7/3/6 30/15/6 
f 30/15/6 29/15/6 3/3/6 
f 13/7/6 16/7/6 24/12/6 
f 24/12/6 23/12/6 13/7/6 
f 2/2/7 13/7/7 23/12/7 
f 23/12/7 22/11/7 2/2/7 
f 16/7/8 8/2/8 21/11/8 
f 21/11/8 24/12/8 16/7/8 
f 10/6/9 3/3/9 29/15/9 
f 29/15/9 32/16/9 10/6/9 
f 7/3/10 11/6/10 31/16/10 
f 31/16/10 30/15/10 7/3/10 
f 6/4/6 4/4/6 26/13/6 
f 26/13/6 25/13/6 6/4/6 
f 1/1/4 5/1/4 18/9/4 
f 18/9/4 17/9/4 1/1/4 
f 9/5/4 12/5/4 28/14/4 
f 28/14/4 27/14/4 9/5/4 
f 15/8/6 14/8/6 20/10/6 
f 20/10/6 19/10/6 15/8/6 
f 14/8/7 1/1/7 17/9/7 
f 17/9/7 20/10/7 14/8/7 
f 5/1/8 15/8/8 19/10/8 
f 19/10/8 18/9/8 5/1/8 
f 4/4/9 9/5/9 27/14/9 
f 27/14/9 26/13/9 4/4/9 
f 12/5/10 6/4/10 25/13/10 
f 25/13/10 28/14/10 12/5/10 
# 60 faces

